HIERARCHY
ROOT joint_0
{
	OFFSET 0.000000 0.000000 0.000000
	CHANNELS 6 Xposition Yposition Zposition Zrotation Yrotation Xrotation 
	JOINT joint_1
	{
		OFFSET 6.590088 -1.122192 114.019043
		CHANNELS 3 Zrotation Yrotation Xrotation
		JOINT joint_2
		{
			OFFSET -5.956055 -0.820435 104.151001
			CHANNELS 3 Zrotation Yrotation Xrotation
			JOINT joint_3
			{
				OFFSET -7.343506 -1.103027 103.942993
				CHANNELS 3 Zrotation Yrotation Xrotation
				JOINT joint_4
				{
					OFFSET 3.109131 -2.857056 147.715942
					CHANNELS 3 Zrotation Yrotation Xrotation
					JOINT joint_5
					{
						OFFSET 28.592285 -2.852295 87.703979
						CHANNELS 3 Zrotation Yrotation Xrotation
						End Site
						{
							OFFSET 0.000000 0.000000 0.000000
						}
					}
				}
				JOINT joint_6
				{
					OFFSET -0.332520 -33.687378 82.401978
					CHANNELS 3 Zrotation Yrotation Xrotation
					JOINT joint_7
					{
						OFFSET -7.397461 -168.719177 -22.750977
						CHANNELS 3 Zrotation Yrotation Xrotation
						JOINT joint_8
						{
							OFFSET 17.065918 -24.903137 -272.721069
							CHANNELS 3 Zrotation Yrotation Xrotation
							JOINT joint_9
							{
								OFFSET 33.311279 -37.031616 -278.192993
								CHANNELS 3 Zrotation Yrotation Xrotation
								End Site
								{
									OFFSET 0.000000 0.000000 0.000000
								}
							}
						}
					}
				}
				JOINT joint_10
				{
					OFFSET 3.914307 30.461670 83.552979
					CHANNELS 3 Zrotation Yrotation Xrotation
					JOINT joint_11
					{
						OFFSET 15.543701 166.845459 -30.963013
						CHANNELS 3 Zrotation Yrotation Xrotation
						JOINT joint_12
						{
							OFFSET 35.734863 35.017700 -269.786011
							CHANNELS 3 Zrotation Yrotation Xrotation
							JOINT joint_13
							{
								OFFSET 70.506592 13.977783 -273.320007
								CHANNELS 3 Zrotation Yrotation Xrotation
								End Site
								{
									OFFSET 0.000000 0.000000 0.000000
								}
							}
						}
					}
				}
			}
		}
	}
	JOINT joint_14
	{
		OFFSET -0.314697 -95.093994 -116.004028
		CHANNELS 3 Zrotation Yrotation Xrotation
		JOINT joint_15
		{
			OFFSET -22.490723 2.017883 -455.510986
			CHANNELS 3 Zrotation Yrotation Xrotation
			JOINT joint_16
			{
				OFFSET -46.427490 7.144104 -496.360985
				CHANNELS 3 Zrotation Yrotation Xrotation
				JOINT joint_17
				{
					OFFSET 209.055420 -37.122803 -85.191002
					CHANNELS 3 Zrotation Yrotation Xrotation
					End Site
					{
						OFFSET 0.000000 0.000000 0.000000
					}
				}
			}
		}
	}
	JOINT joint_18
	{
		OFFSET 5.652832 94.642578 -116.244019
		CHANNELS 3 Zrotation Yrotation Xrotation
		JOINT joint_19
		{
			OFFSET -12.379883 -7.332642 -455.843994
			CHANNELS 3 Zrotation Yrotation Xrotation
			JOINT joint_20
			{
				OFFSET -45.227051 -8.172241 -496.457985
				CHANNELS 3 Zrotation Yrotation Xrotation
				JOINT joint_21
				{
					OFFSET 210.522949 -11.530396 -88.809004
					CHANNELS 3 Zrotation Yrotation Xrotation
					End Site
					{
						OFFSET 0.000000 0.000000 0.000000
					}
				}
			}
		}
	}
}
MOTION
Frames: 10
Frame Time: 0.016667
-2666.744629 932.835449 1172.035034 -7.631431 4.592893 -4.691974 0.872535 1.055519 -5.167848 0.859927 -0.169177 1.079475 0.651390 0.285350 -0.850484 0.003515 -5.844461 -0.567789 0.000000 0.000000 0.000000 2.012510 1.910344 -2.455958 1.020472 2.041443 -0.742663 2.971928 -12.245678 10.732309 0.000000 0.000000 0.000000 1.642767 2.200350 2.498848 2.315461 1.625006 10.474265 0.166001 -4.894620 1.578973 0.000000 0.000000 0.000000 10.245834 -7.345068 -5.807975 9.108718 28.779820 8.520627 12.026334 2.748332 4.847278 0.000000 0.000000 0.000000 -2.032179 -27.193174 15.282102 -5.874621 4.141537 0.638768 -6.170274 28.844983 -1.344411 0.000000 0.000000 0.000000 
-2657.027832 937.532166 1168.312012 -7.822918 4.220413 -4.600054 0.970605 1.507502 -5.206235 0.947853 -0.232153 1.059887 0.746168 0.343204 -0.859343 0.022360 -5.538675 -0.602659 0.000000 0.000000 0.000000 1.979886 1.656934 -2.543173 1.005399 1.785095 -0.828414 2.905635 -11.925189 10.502656 0.000000 0.000000 0.000000 1.546236 2.012428 2.059498 2.356193 1.376363 10.907395 0.077806 -5.451602 1.345893 0.000000 0.000000 0.000000 10.390474 -8.284089 -6.920694 9.213891 31.975941 10.184253 13.024430 3.461361 5.292132 0.000000 0.000000 0.000000 -2.272782 -26.556519 15.396088 -5.457946 5.025727 0.166270 -5.825386 25.935017 -1.240327 0.000000 0.000000 0.000000 
-2648.299072 942.124939 1165.097046 -7.708028 3.933157 -4.375469 1.023929 1.894393 -5.341893 0.944015 -0.265561 1.060735 0.740505 0.365946 -0.875446 0.033687 -5.353961 -0.624156 0.000000 0.000000 0.000000 1.776589 1.455597 -2.612263 0.993921 1.557388 -0.894917 2.833285 -11.529571 10.242358 0.000000 0.000000 0.000000 1.511652 1.827144 1.559730 2.373553 1.105259 11.368318 -0.031646 -5.936855 1.021378 0.000000 0.000000 0.000000 10.249589 -9.267801 -8.071752 9.108697 35.208492 11.681338 13.777966 4.416627 5.697823 0.000000 0.000000 0.000000 -2.581603 -25.741187 15.134143 -4.960873 5.623132 -0.177059 -5.352593 22.878622 -1.106100 0.000000 0.000000 0.000000 
-2640.440918 946.027283 1162.743042 -7.245306 3.884299 -3.977360 0.999186 2.185556 -5.667764 0.844601 -0.287604 1.129994 0.625412 0.376686 -0.913550 0.061427 -5.329407 -0.703860 0.000000 0.000000 0.000000 1.563305 1.355323 -2.602890 0.975692 1.434540 -0.991844 2.783149 -11.318469 10.042777 0.000000 0.000000 0.000000 1.609896 1.654296 1.139468 2.373581 0.837074 11.721171 -0.143228 -6.470018 0.699674 0.000000 0.000000 0.000000 9.764806 -10.271665 -9.243396 8.712588 37.800700 12.656570 13.845445 5.087993 5.829340 0.000000 0.000000 0.000000 -2.939225 -25.018760 14.531800 -4.607484 5.630448 -0.350011 -4.978091 20.657145 -1.004792 0.000000 0.000000 0.000000 
-2633.639404 949.023865 1161.538940 -6.245613 4.181381 -3.356445 0.809314 2.357486 -6.222937 0.597763 -0.287874 1.271910 0.349744 0.384982 -0.999133 0.119788 -5.556860 -0.888490 0.000000 0.000000 0.000000 1.373640 1.381830 -2.458515 0.950667 1.452238 -1.188521 2.782684 -11.453065 9.999601 0.000000 0.000000 0.000000 1.904734 1.483915 0.836639 2.357786 0.551689 11.983423 -0.270529 -7.143131 0.349030 0.000000 0.000000 0.000000 8.783869 -11.383692 -10.495887 7.849666 39.649483 13.088494 12.826697 5.100885 5.481963 0.000000 0.000000 0.000000 -3.365263 -24.549032 13.521685 -4.446172 4.889042 -0.322444 -4.766677 19.659198 -0.931217 0.000000 0.000000 0.000000 
-2627.708252 951.328064 1161.194946 -4.905696 4.694295 -2.589259 0.510050 2.429247 -6.861542 0.272754 -0.264659 1.423618 -0.005129 0.378486 -1.108455 0.196045 -5.942616 -1.134151 0.000000 0.000000 0.000000 1.175619 1.510245 -2.240852 0.918871 1.575293 -1.409561 2.804201 -11.770268 10.017607 0.000000 0.000000 0.000000 2.330126 1.330099 0.612923 2.320464 0.271057 12.139749 -0.407108 -7.860108 -0.015332 0.000000 0.000000 0.000000 7.505482 -12.574936 -11.731340 6.717179 40.901445 13.107630 11.108703 4.539805 4.797218 0.000000 0.000000 0.000000 -3.811472 -24.168151 12.247248 -4.397737 3.580708 -0.146954 -4.668030 19.426818 -0.874147 0.000000 0.000000 0.000000 
-2621.976807 953.000000 1161.194946 -3.750490 5.265708 -1.845809 0.270012 2.368348 -7.380838 0.051284 -0.225743 1.527112 -0.243826 0.352877 -1.185556 0.272099 -6.248225 -1.373797 0.000000 0.000000 0.000000 1.021216 1.712732 -2.068073 0.874402 1.771213 -1.491571 2.796963 -12.036762 9.907116 0.000000 0.000000 0.000000 2.750310 1.241183 0.499038 2.261559 0.089206 12.000743 -0.501759 -8.467535 -0.221056 0.000000 0.000000 0.000000 6.397324 -13.702351 -12.681190 5.750618 41.304113 12.665901 9.442979 3.509971 4.042426 0.000000 0.000000 0.000000 -4.169734 -23.721082 11.069997 -4.453076 1.954699 0.116426 -4.691556 19.595050 -0.856888 0.000000 0.000000 0.000000 
-2616.257324 954.019897 1161.599976 -3.000250 5.880665 -1.174730 0.157149 2.141758 -7.731711 0.007971 -0.174771 1.562210 -0.285776 0.313611 -1.198177 0.338578 -6.376629 -1.575597 0.000000 0.000000 0.000000 0.948758 1.992883 -1.989787 0.816917 2.041709 -1.314391 2.737364 -12.179375 9.514200 0.000000 0.000000 0.000000 3.133271 1.233361 0.508857 2.187096 0.047133 11.393279 -0.503990 -8.928183 -0.075850 0.000000 0.000000 0.000000 5.623778 -14.753914 -13.239936 5.078612 40.517191 11.604460 8.063102 2.023878 3.294875 0.000000 0.000000 0.000000 -4.430533 -23.010704 10.086301 -4.650143 -0.252024 0.562000 -4.870214 20.306054 -0.890246 0.000000 0.000000 0.000000 
-2610.737549 954.407471 1162.348999 -2.467154 6.540963 -0.545901 0.122632 1.833610 -7.959738 0.080395 -0.144318 1.544631 -0.200303 0.254965 -1.181361 0.401893 -6.422200 -1.762674 0.000000 0.000000 0.000000 0.913250 2.341554 -1.938831 0.749869 2.380020 -1.008468 2.652319 -12.256365 8.996670 0.000000 0.000000 0.000000 3.504331 1.299288 0.623933 2.100872 0.112406 10.520252 -0.467841 -9.298325 0.223188 0.000000 0.000000 0.000000 5.002367 -15.669048 -13.474755 4.507143 38.760727 10.063493 6.766035 0.397770 2.544377 0.000000 0.000000 0.000000 -4.619740 -22.188544 9.208950 -4.946467 -2.803727 1.153424 -5.174399 21.484871 -0.963036 0.000000 0.000000 0.000000 
-2605.308105 954.276428 1162.740967 -2.004605 7.207926 0.018147 0.153281 1.440040 -8.096208 0.222233 -0.118372 1.515490 -0.045719 0.162539 -1.178627 0.466108 -6.442864 -1.950519 0.000000 0.000000 0.000000 0.835319 2.713493 -1.866895 0.675599 2.740658 -0.781061 2.570051 -12.237527 8.642901 0.000000 0.000000 0.000000 3.823554 1.442863 0.847230 1.996927 0.262663 9.737457 -0.491590 -9.551005 0.276837 0.000000 0.000000 0.000000 4.450830 -16.327078 -13.450403 3.962335 36.760622 8.467800 5.589499 -0.952682 1.881991 0.000000 0.000000 0.000000 -4.708069 -21.752291 8.457766 -5.207162 -4.641863 1.616057 -5.455673 22.308250 -1.045867 0.000000 0.000000 0.000000 
